<?xml version="1.0" encoding="UTF-8" standalone="no"?>
<!-- Created with Inkscape (http://www.inkscape.org/) -->

<svg version="1.1" id="svg9" width="340.31747" height="340.31747" viewBox="0 0 340.31747 340.31747" xml:space="preserve"
  xmlns:xlink="http://www.w3.org/1999/xlink"
  xmlns="http://www.w3.org/2000/svg"
  xmlns:svg="http://www.w3.org/2000/svg">
  <defs id="defs13">
    <linearGradient id="linearGradient8057">
      <stop style="stop-color:#8a93ff;stop-opacity:1" offset="0" id="stop8053" />
      <stop style="stop-color:#515abd;stop-opacity:1" offset="1" id="stop8055" />
    </linearGradient>
    <linearGradient xlink:href="#linearGradient8057" id="linearGradient8059" x1="170.16016" y1="21.087891" x2="170.63281" y2="319.20456" gradientUnits="userSpaceOnUse" />
  </defs>
  <g id="g15">
    <g id="g8757" transform="translate(-4.3181738e-4)">
      <g id="g8764">
        <path id="text231" style="font-size:302.121px;line-height:1.25;font-family:sans-serif;text-align:center;text-anchor:middle;fill:#8a93ff;fill-opacity:1;stroke-width:7.99426" d="M 170.1582,0 44.054688,77.892578 V 106.09766 L 168.68359,183.99219 183.44141,163.82031 67.667969,92.158203 170.63281,29.009766 c 37.47814,23.14257 71.78301,44.241356 110.2461,68.107422 4.22252,-6.967284 8.44543,-13.935071 12.66797,-20.902344 C 250.36123,49.51652 213.32015,26.781663 170.1582,0 Z" />
        <path id="text231-1" style="font-size:302.121px;line-height:1.25;font-family:sans-serif;text-align:center;text-anchor:middle;fill:#515abd;fill-opacity:1;stroke-width:7.99426" d="M 170.15873,340.31747 296.26365,262.4244 v -28.20521 l -124.62892,-77.89308 -13.69348,20.67386 114.70847,71.15852 -115.77291,71.00507 z" />
        <path id="text231-4-4" style="font-size:302.121px;line-height:1.25;font-family:sans-serif;text-align:center;text-anchor:middle;fill:url(#linearGradient8059);fill-opacity:1;stroke-width:7.82203" d="m 158.60352,21.052734 c -1.2e-4,0.02293 1.4e-4,0.04543 0,0.06836 l -1.86719,0.0039 c 0.16239,25.87043 0.33266,51.740859 0.50195,77.611328 -0.0253,0.04171 -0.0509,0.08327 -0.0762,0.125 0.0274,0.01692 0.0508,0.03191 0.0781,0.04883 0.15528,23.727234 0.30728,47.456014 0.46094,71.181644 2.3e-4,0.0356 -2.3e-4,0.0698 0,0.10547 -0.32157,49.6523 -0.65314,99.31124 -0.96484,148.96679 l 1.86719,0.004 c 1.4e-4,0.023 -1.2e-4,0.0474 0,0.0703 l 11.55664,-0.0352 11.55273,0.0352 c 1.2e-4,-0.023 -1.2e-4,-0.0474 0,-0.0703 l 1.86914,-0.004 c -0.31169,-49.65555 -0.64523,-99.31449 -0.9668,-148.96679 1.1e-4,-0.0178 -1.2e-4,-0.0349 0,-0.0527 -1.2e-4,-0.0178 1.1e-4,-0.0348 0,-0.0527 0.11938,-18.43302 0.23855,-36.86865 0.35938,-55.30274 32.65589,20.14924 63.74631,39.29546 97.9043,60.49024 4.22252,-6.96729 8.44543,-13.93312 12.66797,-20.90039 C 254.9125,130.49428 220.74095,109.47687 183.16016,86.201172 183.30169,64.508983 183.44587,42.817047 183.58203,21.125 l -1.86914,-0.0039 c -1.2e-4,-0.02293 1.2e-4,-0.04543 0,-0.06836 l -11.55273,0.03516 z" />
      </g>
    </g>
  </g>
</svg>
